<?xml version="1.0" encoding="utf-8"?>
<!-- Generator: Adobe Illustrator 18.1.1, SVG Export Plug-In . SVG Version: 6.00 Build 0)  -->
<svg version="1.1" id="signingOrder" xmlns="http://www.w3.org/2000/svg" xmlns:xlink="http://www.w3.org/1999/xlink" x="0px" y="0px"
	 viewBox="0 0 370 75" enable-background="new 0 0 370 75" xml:space="preserve">
<g>
	<line fill="none" stroke="#C8D2E2" stroke-width="2" stroke-miterlimit="10" x1="78" y1="0" x2="78" y2="75"/>
	<line fill="none" stroke="#C8D2E2" stroke-width="2" stroke-miterlimit="10" x1="224.3" y1="0" x2="224.3" y2="75"/>
</g>
	<line fill="none" stroke="#C8D2E2" stroke-width="2" stroke-miterlimit="10" x1="331.2" y1="0" x2="331.2" y2="75"/>
	<path fill="none" stroke="#C8D2E2" stroke-width="2" stroke-miterlimit="10" d="M364.9,67.3h-67c-2.2,0-4-1.8-4-4v-54
	c0-2.2,1.8-4,4-4h67c2.2,0,4,1.8,4,4v54C368.9,65.5,367.1,67.3,364.9,67.3z"/>
	<path fill="none" stroke="#C8D2E2" stroke-width="2" stroke-miterlimit="10" d="M150,68H5c-2.2,0-4-1.8-4-4V10c0-2.2,1.8-4,4-4h145
	c2.2,0,4,1.8,4,4v54C154,66.2,152.2,68,150,68z"/>
</svg>
