<?xml version="1.0" encoding="utf-8"?>
<!-- Generator: Adobe Illustrator 22.1.0, SVG Export Plug-In . SVG Version: 6.00 Build 0)  -->
<svg version="1.1" id="Layer_1" 
	xmlns="http://www.w3.org/2000/svg" 
	xmlns:xlink="http://www.w3.org/1999/xlink" x="0px" y="0px" viewBox="0 0 120 120" style="enable-background:new 0 0 120 120;" xml:space="preserve">
	<style type="text/css">
	.st0{fill:#FFCD40;}
	.st1{fill:#CE3C27;}
	.st2{fill:#CD3B27;}
	</style>
	<g>
		<path id="Shape" class="st0" d="M120,108c0,6.6-5.4,12-12,12H12c-6.6,0-12-5.4-12-12V12C0,5.4,5.4,0,12,0h96c6.6,0,12,5.4,12,12
		V108L120,108z"/>
	</g>
	<g id="DocuSign">
		<path class="st1" d="M89.7,50.3H72.9V24.8H46.7v25.9H30.4L60,83.3"/>
		<path class="st2" d="M59.6,96H18.1c-1.2,0-2.5-0.4-3.5-1.1c-1.3-1.1-0.6-3.2,1.2-3.7c1-0.2,2-0.3,3-0.2h83.8c1.8,0,3.4,0.4,3.5,2.4
		c0.1,2-1.7,2.6-3.5,2.6H59.6z"/>
	</g>
</svg>